# Blender 4.5.5 LTS
# www.blender.org
mtllib tree.mtl
o Cylinder
v 0.000000 -1.000000 0.000000
v 0.000000 -0.000000 -10.000000
v 0.707107 -0.707107 0.000000
v 0.000000 -0.000000 -10.000000
v 1.000000 0.000000 -0.000000
v 0.000000 -0.000000 -10.000000
v 0.707107 0.707107 -0.000000
v 0.000000 -0.000000 -10.000000
v 0.000000 1.000000 -0.000000
v 0.000000 -0.000000 -10.000000
v -0.707107 0.707107 -0.000000
v 0.000000 -0.000000 -10.000000
v -1.000000 0.000000 -0.000000
v 0.000000 -0.000000 -10.000000
v -0.707107 -0.707107 0.000000
v 0.000000 -0.000000 -10.000000
v 0.000000 -0.400000 -5.000000
v 0.282843 -0.282843 -5.000000
v 0.400000 0.000000 -5.000000
v 0.282843 0.282843 -5.000000
v 0.000000 0.400000 -5.000000
v -0.282843 0.282843 -5.000000
v -0.400000 0.000000 -5.000000
v -0.282843 -0.282843 -5.000000
v 0.494975 -0.494975 -2.500000
v 0.700000 0.000000 -2.500000
v 0.494975 0.494975 -2.500000
v 0.000000 0.700000 -2.500000
v -0.494975 0.494975 -2.500000
v -0.700000 0.000000 -2.500000
v -0.494975 -0.494975 -2.500000
v 0.000000 -0.700000 -2.500000
v 0.000000 -0.100000 -7.500000
v 0.070711 -0.070711 -7.500000
v 0.100000 -0.000000 -7.500000
v 0.070711 0.070711 -7.500000
v 0.000000 0.100000 -7.500000
v -0.070711 0.070711 -7.500000
v -0.100000 -0.000000 -7.500000
v -0.070711 -0.070711 -7.500000
vn 0.3824 -0.9232 -0.0369
vn 0.9232 -0.3824 -0.0369
vn 0.9232 0.3824 -0.0369
vn 0.3824 0.9232 -0.0369
vn -0.3824 0.9232 -0.0369
vn -0.9232 0.3824 -0.0369
vn -0.0000 1.0000 -0.0000
vn -0.9232 -0.3824 -0.0369
vn -0.3824 -0.9232 -0.0369
vn -0.0000 -0.0000 1.0000
vn -0.3804 -0.9183 -0.1102
vn -0.9183 -0.3804 -0.1102
vn -0.9183 0.3804 -0.1102
vn -0.3804 0.9183 -0.1102
vn 0.3804 0.9183 -0.1102
vn 0.9183 0.3804 -0.1102
vn 0.9183 -0.3804 -0.1102
vn 0.3804 -0.9183 -0.1102
vt 1.000000 0.875000
vt 1.000000 1.000000
vt 0.875000 1.000000
vt 0.875000 0.875000
vt 0.750000 1.000000
vt 0.750000 0.875000
vt 0.625000 1.000000
vt 0.625000 0.875000
vt 0.500000 1.000000
vt 0.500000 0.875000
vt 0.375000 1.000000
vt 0.375000 0.875000
vt 0.250000 1.000000
vt 0.250000 0.875000
vt 0.419706 0.419706
vt 0.250000 0.490000
vt 0.080294 0.419706
vt 0.010000 0.250000
vt 0.080294 0.080294
vt 0.250000 0.010000
vt 0.419706 0.080294
vt 0.490000 0.250000
vt 0.125000 1.000000
vt 0.125000 0.875000
vt 0.000000 1.000000
vt 0.000000 0.875000
vt 0.750000 0.490000
vt 0.919706 0.419706
vt 0.990000 0.250000
vt 0.919706 0.080294
vt 0.750000 0.010000
vt 0.580294 0.080294
vt 0.510000 0.250000
vt 0.580294 0.419706
vt 0.125000 0.625000
vt 0.125000 0.750000
vt 0.000000 0.750000
vt 0.000000 0.625000
vt 0.250000 0.625000
vt 0.250000 0.750000
vt 0.375000 0.625000
vt 0.375000 0.750000
vt 0.500000 0.625000
vt 0.500000 0.750000
vt 0.625000 0.625000
vt 0.625000 0.750000
vt 0.750000 0.625000
vt 0.750000 0.750000
vt 0.875000 0.625000
vt 0.875000 0.750000
vt 1.000000 0.625000
vt 1.000000 0.750000
vt 1.000000 0.500000
vt 0.875000 0.500000
vt 0.750000 0.500000
vt 0.625000 0.500000
vt 0.500000 0.500000
vt 0.375000 0.500000
vt 0.250000 0.500000
vt 0.125000 0.500000
vt 0.000000 0.500000
s 0
f 33/1/1 2/2/1 4/3/1 34/4/1
f 34/4/2 4/3/2 6/5/2 35/6/2
f 35/6/3 6/5/3 8/7/3 36/8/3
f 36/8/4 8/7/4 10/9/4 37/10/4
f 37/10/5 10/9/5 12/11/5 38/12/5
f 38/12/6 12/11/6 14/13/6 39/14/6
f 4/15/7 2/16/7 16/17/7 14/18/7 12/19/7 10/20/7 8/21/7 6/22/7
f 39/14/8 14/13/8 16/23/8 40/24/8
f 40/24/9 16/23/9 2/25/9 33/26/9
f 1/27/10 3/28/10 5/29/10 7/30/10 9/31/10 11/32/10 13/33/10 15/34/10
f 31/35/11 24/36/11 17/37/11 32/38/11
f 30/39/12 23/40/12 24/36/12 31/35/12
f 29/41/13 22/42/13 23/40/13 30/39/13
f 28/43/14 21/44/14 22/42/14 29/41/14
f 27/45/15 20/46/15 21/44/15 28/43/15
f 26/47/16 19/48/16 20/46/16 27/45/16
f 25/49/17 18/50/17 19/48/17 26/47/17
f 32/51/18 17/52/18 18/50/18 25/49/18
f 1/53/18 32/51/18 25/49/18 3/54/18
f 3/54/17 25/49/17 26/47/17 5/55/17
f 5/55/16 26/47/16 27/45/16 7/56/16
f 7/56/15 27/45/15 28/43/15 9/57/15
f 9/57/14 28/43/14 29/41/14 11/58/14
f 11/58/13 29/41/13 30/39/13 13/59/13
f 13/59/12 30/39/12 31/35/12 15/60/12
f 15/60/11 31/35/11 32/38/11 1/61/11
f 24/36/11 40/24/11 33/26/11 17/37/11
f 23/40/12 39/14/12 40/24/12 24/36/12
f 22/42/13 38/12/13 39/14/13 23/40/13
f 21/44/14 37/10/14 38/12/14 22/42/14
f 20/46/15 36/8/15 37/10/15 21/44/15
f 19/48/16 35/6/16 36/8/16 20/46/16
f 18/50/17 34/4/17 35/6/17 19/48/17
f 17/52/18 33/1/18 34/4/18 18/50/18
o Cone
v 0.000000 -2.686797 -1.710903
v 1.899852 -1.899852 -1.710903
v 2.686797 0.000000 -1.710903
v 1.899852 1.899852 -1.710903
v 0.000000 2.686797 -1.710903
v -1.899852 1.899852 -1.710903
v -2.686797 0.000000 -1.710903
v -1.899852 -1.899852 -1.710903
v 0.000000 -0.000000 -6.748647
v 1.131371 1.131371 -1.241870
v 0.000000 -0.000000 -4.241870
v 0.000000 -2.065912 -4.041862
v 1.460820 -1.460820 -4.041862
v 2.065912 0.000000 -4.041862
v 1.460820 1.460821 -4.041862
v 0.000000 2.065912 -4.041862
v -1.460820 1.460821 -4.041862
v -2.065912 0.000000 -4.041862
v -1.460820 -1.460820 -4.041862
v 0.000000 -0.000000 -7.915446
v 1.131371 1.131371 -4.282610
v 0.000000 -0.000000 -7.391539
v 0.000000 -1.257768 -6.460730
v 0.889376 -0.889376 -6.460730
v 1.257768 0.000000 -6.460730
v 0.889376 0.889376 -6.460730
v 0.000000 1.257768 -6.460730
v -0.889376 0.889376 -6.460730
v -1.257768 0.000000 -6.460730
v -0.889376 -0.889376 -6.460730
v 0.000000 -0.000000 -8.904675
v 0.000000 -0.875086 -7.954935
v 0.618779 -0.618779 -7.954935
v 0.875086 0.000000 -7.954935
v 0.618779 0.618779 -7.954935
v 0.000000 0.875086 -7.954935
v -0.618779 0.618779 -7.954935
v -0.875086 0.000000 -7.954935
v -0.618779 -0.618779 -7.954935
v 0.000000 -0.000000 -9.595721
vn 0.3433 -0.8287 -0.4420
vn 0.8287 -0.3433 -0.4420
vn 0.8287 0.3433 -0.4420
vn 0.3433 0.8287 -0.4420
vn -0.3433 0.8287 -0.4420
vn -0.8287 0.3433 -0.4420
vn -0.0000 -0.0000 1.0000
vn -0.8287 -0.3433 -0.4420
vn -0.3433 -0.8287 -0.4420
vn 0.2573 -0.1066 -0.9604
vn 0.3456 -0.8344 -0.4294
vn 0.8344 -0.3456 -0.4294
vn 0.8344 0.3456 -0.4294
vn 0.3456 0.8344 -0.4294
vn -0.3456 0.8344 -0.4294
vn -0.8344 0.3456 -0.4294
vn -0.8344 -0.3456 -0.4294
vn -0.3456 -0.8344 -0.4294
vt 0.250000 0.490000
vt 0.250000 0.250000
vt 0.419706 0.419706
vt 0.490000 0.250000
vt 0.419706 0.080294
vt 0.250000 0.010000
vt 0.080294 0.080294
vt 0.010000 0.250000
vt 0.750000 0.490000
vt 0.919706 0.419706
vt 0.990000 0.250000
vt 0.919706 0.080294
vt 0.750000 0.010000
vt 0.580294 0.080294
vt 0.510000 0.250000
vt 0.580294 0.419706
vt 0.080294 0.419706
vt 0.250000 0.394798
vt 0.250000 0.250000
vt 0.352388 0.352388
vt 0.394798 0.250000
vt 0.352388 0.147612
vt 0.250000 0.105202
vt 0.147612 0.147612
vt 0.105202 0.250000
vt 0.147612 0.352388
vt 0.250000 0.351437
vt 0.250000 0.250000
vt 0.321727 0.321727
vt 0.351437 0.250000
vt 0.321727 0.178273
vt 0.250000 0.148563
vt 0.178273 0.178273
vt 0.148563 0.250000
vt 0.178273 0.321727
vt 0.250000 0.298658
vt 0.250000 0.250000
vt 0.284407 0.284407
vt 0.298658 0.250000
vt 0.284407 0.215593
vt 0.250000 0.201342
vt 0.215593 0.215593
vt 0.201342 0.250000
vt 0.215594 0.284407
s 0
f 41/62/19 49/63/19 42/64/19
f 42/64/20 49/63/20 43/65/20
f 43/65/21 49/63/21 44/66/21
f 44/66/22 49/63/22 45/67/22
f 45/67/23 49/63/23 46/68/23
f 46/68/24 49/63/24 47/69/24
f 41/70/25 42/71/25 43/72/25 44/73/25 45/74/25 46/75/25 47/76/25 48/77/25
f 47/69/26 49/63/26 48/78/26
f 48/78/27 49/63/27 41/62/27
f 52/79/19 60/80/19 53/81/19
f 53/81/20 60/80/20 54/82/20
f 54/82/21 60/80/21 55/83/21
f 55/83/22 60/80/22 56/84/22
f 56/84/23 60/80/23 57/85/23
f 57/85/24 60/80/24 58/86/24
f 52/70/25 53/71/25 54/72/25 55/73/25 56/74/25 57/75/25 58/76/25 59/77/25
f 58/86/26 60/80/26 59/87/26
f 59/87/27 60/80/27 52/79/27
f 49/63/28 46/68/28 45/67/28 44/66/28 43/65/28 42/64/28 41/62/28 48/77/28 47/76/28
f 63/88/29 71/89/29 64/90/29
f 64/90/30 71/89/30 65/91/30
f 65/91/31 71/89/31 66/92/31
f 66/92/32 71/89/32 67/93/32
f 67/93/33 71/89/33 68/94/33
f 68/94/34 71/89/34 69/95/34
f 63/70/25 64/71/25 65/72/25 66/73/25 67/74/25 68/75/25 69/76/25 70/77/25
f 69/95/35 71/89/35 70/96/35
f 70/96/36 71/89/36 63/88/36
f 72/97/19 80/98/19 73/99/19
f 73/99/20 80/98/20 74/100/20
f 74/100/21 80/98/21 75/101/21
f 75/101/22 80/98/22 76/102/22
f 76/102/23 80/98/23 77/103/23
f 77/103/24 80/98/24 78/104/24
f 72/70/25 73/71/25 74/72/25 75/73/25 76/74/25 77/75/25 78/76/25 79/77/25
f 78/104/26 80/98/26 79/105/26
f 79/105/27 80/98/27 72/97/27
l 51 50
